<svg xmlns="http://www.w3.org/2000/svg" enable-background="new 0 0 100 100" viewBox="0 0 100 125" x="0px" y="0px"><path fill="#BED173" d="m50 14.5c-19.6 0-35.5 15.9-35.5 35.5s15.9 35.5 35.5 35.5 35.5-15.9 35.5-35.5-15.9-35.5-35.5-35.5zm0 65c-16.3 0-29.5-13.2-29.5-29.5s13.2-29.5 29.5-29.5 29.5 13.2 29.5 29.5-13.2 29.5-29.5 29.5z"/><path fill="#BED173" d="m62.9 37.9-18.6 18.6-7.2-7.2c-1.2-1.2-3.1-1.2-4.2 0-1.2 1.2-1.2 3.1 0 4.2l9.3 9.3c.6.6 1.4.9 2.1.9s1.5-.3 2.1-.9l20.7-20.7c1.2-1.2 1.2-3.1 0-4.2-1.2-1.2-3-1.2-4.2 0z"/></svg>